HIERARCHY
ROOT Hips
{
	OFFSET 0.000000 0.000000 0.000000 
	CHANNELS 6 Xposition Yposition Zposition Zrotation Yrotation Xrotation
	JOINT LeftUpLeg
	{
		OFFSET 1.363060 -1.794630 0.839290 
		CHANNELS 3 Zrotation Yrotation Xrotation
		JOINT LeftLeg
		{
			OFFSET 2.448110 -6.726130 0.000000 
			CHANNELS 3 Zrotation Yrotation Xrotation
			JOINT LeftFoot
			{
				OFFSET 2.562200 -7.039590 0.000000 
				CHANNELS 3 Zrotation Yrotation Xrotation
				JOINT LeftToeBase
				{
					OFFSET 0.157640 -0.433110 2.322550 
					CHANNELS 3 Zrotation Yrotation Xrotation
					End Site
					{
						OFFSET 0.000000 0.000000 0.000000 
					}
				}
			}
		}
	}
	JOINT RightUpLeg
	{
		OFFSET -1.305520 -1.794630 0.839290 
		CHANNELS 3 Zrotation Yrotation Xrotation
		JOINT RightLeg
		{
			OFFSET -2.542530 -6.985550 0.000000 
			CHANNELS 3 Zrotation Yrotation Xrotation
			JOINT RightFoot
			{
				OFFSET -2.568260 -7.056230 0.000000 
				CHANNELS 3 Zrotation Yrotation Xrotation
				JOINT RightToeBase
				{
					OFFSET -0.164730 -0.452590 2.363150 
					CHANNELS 3 Zrotation Yrotation Xrotation
					End Site
					{
						OFFSET 0.000000 0.000000 0.000000 
					}
				}
			}
		}
	}
	JOINT Spine
	{
		OFFSET 0.028270 2.035590 -0.193380 
		CHANNELS 3 Zrotation Yrotation Xrotation
		JOINT Spine1
		{
			OFFSET 0.056720 2.048850 -0.042750 
			CHANNELS 3 Zrotation Yrotation Xrotation
			JOINT Neck1
			{
				OFFSET -0.054170 1.746240 0.172020 
				CHANNELS 3 Zrotation Yrotation Xrotation
				JOINT Head
				{
					OFFSET 0.104070 1.761360 -0.123970 
					CHANNELS 3 Zrotation Yrotation Xrotation
					End Site
					{
						OFFSET 0.000000 0.000000 0.000000 
					}
				}
			}
			JOINT LeftArm
			{
				OFFSET 3.362410 1.200890 -0.311210 
				CHANNELS 3 Zrotation Yrotation Xrotation
				JOINT LeftForeArm
				{
					OFFSET 4.983000 -0.000000 -0.000000 
					CHANNELS 3 Zrotation Yrotation Xrotation
					JOINT LeftHand
					{
						OFFSET 3.483560 -0.000000 -0.000000 
						CHANNELS 3 Zrotation Yrotation Xrotation
						JOINT LeftHandIndex1
						{
							OFFSET 0.715260 -0.000000 -0.000000 
							CHANNELS 3 Zrotation Yrotation Xrotation
							End Site
							{
								OFFSET 0.000000 0.000000 0.000000 
							}
						}
					}
				}
			}
			JOINT RightArm
			{
				OFFSET -3.136600 1.374050 -0.404650 
				CHANNELS 3 Zrotation Yrotation Xrotation
				JOINT RightForeArm
				{
					OFFSET -5.241900 -0.000000 -0.000000 
					CHANNELS 3 Zrotation Yrotation Xrotation
					JOINT RightHand
					{
						OFFSET -3.444170 -0.000000 -0.000000 
						CHANNELS 3 Zrotation Yrotation Xrotation
						JOINT RightHandIndex1
						{
							OFFSET -0.622530 -0.000000 -0.000000 
							CHANNELS 3 Zrotation Yrotation Xrotation
							End Site
							{
								OFFSET 0.000000 0.000000 0.000000 
							}
						}
					}
				}
			}
		}
	}
}
MOTION
Frames: 18
Frame Time: 0.041667
-6.985923 17.069814 -7.684127 -177.628639 -42.366730 -173.525841 -26.608531 -2.446933 -5.381312 6.441267 16.091246 51.933758 -0.080288 6.736748 14.459654 0.014300 0.772200 2.122100 40.752084 5.232620 -16.833161 1.695433 -8.360930 19.611702 0.398369 -7.972324 -10.732636 -0.059900 -1.579500 4.344800 1.882708 -5.454435 -5.198343 -0.750936 -3.013293 0.010521 6.137130 -5.410722 17.535820 -1.662600 -2.079100 16.212600 -101.700741 5.060282 14.285106 23.387436 -33.557748 -4.456153 -0.560061 4.286993 19.300267 -7.125000 0.000000 0.000000 94.193220 -7.495959 -2.696982 -17.896994 26.703125 -2.853500 -1.055249 -2.639621 19.193721 7.125000 0.000000 0.000000 
-7.043153 17.077264 -7.796858 -177.337732 -42.395682 -173.816569 -26.077699 -3.019692 -6.997407 7.158175 16.737702 54.436551 -0.081052 7.510586 15.088813 0.021200 0.940300 2.584400 41.226391 4.747486 -15.920093 1.746082 -8.070720 19.045524 0.382328 -7.842717 -10.754261 -0.071900 -1.730200 4.760600 1.886133 -5.425357 -5.190974 -0.689133 -3.004116 -0.035494 6.131400 -5.614910 17.460563 -1.656800 -2.163900 16.170600 -101.845412 5.385062 13.881036 23.125283 -33.280651 -4.358438 -0.622525 4.294164 19.889232 -7.125000 0.000000 0.000000 93.948076 -7.241507 -1.242984 -18.657854 27.509233 -3.035686 -1.011119 -2.691145 17.770036 7.125000 0.000000 0.000000 
-7.100814 17.080396 -7.906783 -177.108003 -42.371664 -174.063424 -25.620951 -3.536166 -8.563991 7.829274 17.316013 56.739707 -0.129165 8.045135 15.004644 0.025000 1.020900 2.806200 41.620482 4.310175 -15.091394 1.780936 -7.835133 18.612876 0.358706 -7.666828 -10.836257 -0.083400 -1.863100 5.127500 1.881605 -5.366106 -5.181355 -0.644752 -2.979253 -0.078295 6.127482 -5.822851 17.379861 -1.649400 -2.250100 16.120100 -101.972301 5.703147 13.474811 22.904306 -33.036794 -4.277070 -0.671531 4.299597 20.455159 -7.125000 0.000000 0.000000 93.692362 -6.979864 0.141633 -19.403160 28.286762 -3.223347 -0.992981 -2.716022 16.490775 7.125000 0.000000 0.000000 
-7.159232 17.083203 -8.014872 -176.939481 -42.289165 -174.256147 -25.238617 -3.995917 -10.082126 8.443501 17.828896 58.821501 -0.221736 8.393807 14.286515 0.029500 1.108200 3.046500 41.939393 3.929282 -14.342650 1.802216 -7.650280 18.301968 0.328865 -7.455122 -10.968445 -0.093600 -1.973500 5.432500 1.867922 -5.271213 -5.169021 -0.622217 -2.936261 -0.108848 6.129540 -6.041592 17.296889 -1.635900 -2.340700 16.065800 -102.073704 6.016914 13.081250 22.729240 -32.828920 -4.211931 -0.705490 4.300224 20.975457 -7.125000 0.000000 0.000000 93.434044 -6.705714 1.448491 -20.130053 29.039154 -3.416784 -0.997379 -2.721456 15.344557 7.125000 0.000000 0.000000 
-7.217974 17.082448 -8.120801 -176.799959 -42.145234 -174.399966 -24.900544 -4.409838 -11.586753 9.001349 18.287285 60.692939 -0.342404 8.605180 13.085809 0.036900 1.240500 3.410800 42.217112 3.621352 -13.676028 1.814926 -7.509259 18.087806 0.295346 -7.227020 -11.135610 -0.103800 -2.077400 5.719500 1.846482 -5.141444 -5.155604 -0.625912 -2.876490 -0.130008 6.138558 -6.271967 17.216746 -1.614100 -2.436700 16.012500 -102.151321 6.331881 12.695688 22.599508 -32.655844 -4.162624 -0.723540 4.297012 21.425743 -7.125000 0.000000 0.000000 93.170865 -6.414570 2.676554 -20.833025 29.762419 -3.612388 -1.008835 -2.717787 14.304793 7.125000 0.000000 0.000000 
-7.277255 17.081152 -8.225326 -176.693209 -41.946574 -174.489197 -24.608432 -4.797212 -13.076968 9.497253 18.696240 62.340365 -0.473980 8.767672 11.601852 0.047400 1.405100 3.864100 42.455641 3.379067 -13.074372 1.821988 -7.399175 17.939480 0.259962 -6.994151 -11.324379 -0.113400 -2.171600 5.980200 1.817014 -4.978943 -5.141233 -0.660559 -2.800965 -0.136992 6.152874 -6.518039 17.141062 -1.587500 -2.538900 15.959200 -102.198026 6.656870 12.334193 22.517928 -32.519638 -4.128971 -0.728765 4.290115 21.771885 -7.125000 0.000000 0.000000 92.910701 -6.108541 3.820458 -21.515626 30.462964 -3.809729 -1.018680 -2.710819 13.351725 7.125000 0.000000 0.000000 
-7.336860 17.079424 -8.328988 -176.591346 -41.699642 -174.536611 -24.333619 -5.180037 -14.561891 9.930131 19.062258 63.765129 -0.607783 8.932583 9.923705 0.054000 1.499700 4.125000 42.682629 3.208602 -12.539626 1.824715 -7.321309 17.856790 0.224337 -6.773935 -11.533965 -0.123300 -2.263600 6.234700 1.782611 -4.792304 -5.126925 -0.723321 -2.714474 -0.131161 6.171262 -6.771295 17.071869 -1.557900 -2.643400 15.910000 -102.218050 6.994128 11.993291 22.488623 -32.424984 -4.112143 -0.720745 4.279289 21.980621 -7.125000 0.000000 0.000000 92.644956 -5.781450 4.897552 -22.181291 31.142593 -4.007080 -1.013305 -2.709761 12.457697 7.125000 0.000000 0.000000 
-7.395818 17.076940 -8.431245 -176.522863 -41.461541 -174.501517 -24.092548 -5.632695 -16.059779 10.292700 19.395288 64.956005 -0.737529 9.140551 8.135234 0.052300 1.475800 4.059100 42.875927 3.102367 -12.093686 1.824500 -7.267690 17.816018 0.193247 -6.606056 -11.762250 -0.133200 -2.352400 6.480600 1.746537 -4.610979 -5.116584 -0.797532 -2.631014 -0.117209 6.194571 -7.028450 17.011308 -1.525100 -2.749000 15.867100 -102.218875 7.343265 11.657536 22.507207 -32.371655 -4.111019 -0.704252 4.267257 22.046961 -7.125000 0.000000 0.000000 92.370554 -5.429429 5.915316 -22.838099 31.804291 -4.202257 -0.978141 -2.718520 11.600780 7.125000 0.000000 0.000000 
-7.455531 17.073485 -8.533503 -176.464561 -41.198232 -174.444244 -23.871979 -6.108062 -17.507571 10.581643 19.689002 65.907426 -0.857612 9.369014 6.244206 0.042200 1.325600 3.645200 43.054010 3.043391 -11.679251 1.820620 -7.233655 17.818715 0.162202 -6.454141 -12.010783 -0.146200 -2.464000 6.789800 1.708199 -4.420211 -5.105001 -0.885734 -2.542843 -0.084630 6.220756 -7.286552 16.959624 -1.489200 -2.855300 15.830600 -102.200598 7.705310 11.350648 22.570421 -32.359595 -4.126175 -0.678346 4.257936 21.940860 -7.125000 0.000000 0.000000 92.085912 -5.055167 6.880714 -23.465816 32.432642 -4.393343 -0.936666 -2.727089 10.822992 7.125000 0.000000 0.000000 
-7.515677 17.068302 -8.635545 -176.415987 -40.920352 -174.372717 -23.668689 -6.611884 -18.893436 10.794787 19.945661 66.619757 -0.962122 9.608907 4.294576 0.029300 1.105300 3.038700 43.221736 3.006707 -11.298594 1.811416 -7.220988 17.872566 0.132131 -6.321664 -12.271563 -0.157600 -2.558100 7.050700 1.668486 -4.224763 -5.091971 -0.982207 -2.452134 -0.038008 6.250969 -7.543099 16.914620 -1.449000 -2.961500 15.800000 -102.168475 8.071413 11.052527 22.667230 -32.377687 -4.152817 -0.644452 4.247118 21.696741 -7.125000 0.000000 0.000000 91.792672 -4.657029 7.798730 -24.062455 33.026093 -4.579842 -0.893423 -2.734401 10.118037 7.125000 0.000000 0.000000 
-7.576470 17.061067 -8.737479 -176.367160 -40.621042 -174.313419 -23.473982 -7.122485 -20.200163 10.930447 20.164149 67.092683 -1.044794 9.835969 2.333378 0.017700 0.858500 2.359500 43.387991 2.987193 -10.924422 1.797722 -7.224206 17.967984 0.102551 -6.204319 -12.540354 -0.167700 -2.637900 7.272100 1.628340 -4.024713 -5.077467 -1.083806 -2.358618 0.014549 6.284851 -7.792744 16.876791 -1.403700 -3.066100 15.775600 -102.123494 8.452159 10.781020 22.801909 -32.432456 -4.194326 -0.605821 4.242199 21.309590 -7.125000 0.000000 0.000000 91.490227 -4.236642 8.670386 -24.618304 33.574873 -4.758912 -0.855339 -2.737903 9.501858 7.125000 0.000000 0.000000 
-7.638019 17.051889 -8.839521 -176.320132 -40.298715 -174.279357 -23.288532 -7.629299 -21.414687 10.989651 20.344692 67.332823 -1.103991 10.047824 0.412639 0.008900 0.609100 1.673900 43.550951 2.976016 -10.541511 1.778312 -7.242526 18.108512 0.072683 -6.095435 -12.818337 -0.174100 -2.687700 7.410400 1.587578 -3.817427 -5.060741 -1.190052 -2.260768 0.068729 6.321387 -8.035595 16.843560 -1.354700 -3.169200 15.753800 -102.060285 8.855443 10.558176 22.979497 -32.527127 -4.250510 -0.565964 4.239698 20.794649 -7.125000 0.000000 0.000000 91.182562 -3.797072 9.492092 -25.131633 34.078648 -4.930385 -0.826919 -2.737948 8.965943 7.125000 0.000000 0.000000 
-7.699892 17.040767 -8.941454 -176.274875 -39.958363 -174.268898 -23.109792 -8.133748 -22.544908 10.974569 20.489643 67.348972 -1.139737 10.239173 -1.434926 0.003700 0.390300 1.072400 43.706975 2.985873 -10.157436 1.751144 -7.282994 18.311983 0.042105 -6.002268 -13.122636 -0.178200 -2.719100 7.497800 1.546959 -3.608946 -5.043900 -1.296332 -2.161970 0.110167 6.359913 -8.268705 16.815168 -1.302400 -3.270300 15.734200 -101.991553 9.276883 10.336992 23.179943 -32.639441 -4.312694 -0.525761 4.233031 20.221598 -7.125000 0.000000 0.000000 90.869907 -3.340459 10.271908 -25.594398 34.528917 -5.089966 -0.808320 -2.734292 8.513185 7.125000 0.000000 0.000000 
-7.761225 17.027917 -9.042632 -176.243283 -39.623131 -174.258421 -22.939153 -8.663602 -23.616259 10.885327 20.604037 67.145540 -1.155534 10.421626 -3.180344 0.001000 0.204700 0.562500 43.845614 3.036920 -9.794692 1.715585 -7.349124 18.582837 0.012265 -5.942688 -13.459981 -0.180900 -2.739700 7.555000 1.506486 -3.406274 -5.030262 -1.403801 -2.066147 0.126081 6.399438 -8.497338 16.790597 -1.249000 -3.370900 15.717600 -101.908108 9.721804 10.140771 23.406132 -32.770099 -4.381452 -0.488796 4.223466 19.599069 -7.125000 0.000000 0.000000 90.559295 -2.868087 11.003748 -26.006025 34.924850 -5.235349 -0.796744 -2.727328 8.135286 7.125000 0.000000 0.000000 
-7.822450 17.011504 -9.142839 -176.229414 -39.285267 -174.250611 -22.779047 -9.212184 -24.624295 10.724143 20.686897 66.730306 -1.150165 10.568375 -4.835997 0.000000 -0.001300 -0.003500 43.963000 3.130403 -9.452888 1.669303 -7.445518 18.935518 -0.018887 -5.904467 -13.835617 -0.184700 -2.768300 7.634200 1.466905 -3.212082 -5.019504 -1.506740 -1.974591 0.115994 6.438486 -8.713289 16.769800 -1.195300 -3.468200 15.704400 -101.826917 10.181448 9.930315 23.643682 -32.906132 -4.451508 -0.454780 4.207768 18.971381 -7.125000 0.000000 0.000000 90.245981 -2.382457 11.700094 -26.369160 35.267980 -5.365372 -0.788320 -2.719362 7.829616 7.125000 0.000000 0.000000 
-7.882055 16.994443 -9.241533 -176.250198 -38.980061 -174.197651 -22.634732 -9.824881 -25.601737 10.485716 20.741625 66.090249 -1.130652 10.711514 -6.384078 0.000700 -0.173000 -0.475300 44.044711 3.288454 -9.170118 1.613193 -7.572340 19.361279 -0.048204 -5.919637 -14.256912 -0.190000 -2.807500 7.743300 1.429071 -3.041511 -5.015595 -1.600914 -1.895440 0.073325 6.477041 -8.918534 16.752615 -1.143100 -3.561700 15.697000 -101.748847 10.643434 9.692198 23.883363 -33.038731 -4.520083 -0.424266 4.187010 18.365911 -7.125000 0.000000 0.000000 89.933226 -1.874247 12.360179 -26.685184 35.558518 -5.476374 -0.773028 -2.711333 7.575611 7.125000 0.000000 0.000000 
-7.941985 16.976302 -9.339579 -176.306948 -38.682429 -174.117392 -22.513881 -10.468772 -26.513825 10.170059 20.759439 65.223179 -1.099422 10.849116 -7.827561 0.002700 -0.334800 -0.920000 44.086845 3.488797 -8.911615 1.547948 -7.718934 19.841581 -0.079760 -5.955194 -14.722260 -0.199500 -2.876400 7.934900 1.390982 -2.883131 -5.015163 -1.695885 -1.822685 0.012980 6.512233 -9.112381 16.739456 -1.094100 -3.651100 15.693900 -101.671286 11.109562 9.451101 24.122988 -33.169388 -4.589623 -0.394263 4.167717 17.765685 -7.125000 0.000000 0.000000 89.625430 -1.354392 12.980960 -26.962837 35.808176 -5.572256 -0.753055 -2.703245 7.374583 7.125000 0.000000 0.000000 
-8.003102 16.958054 -9.437734 -176.400905 -38.377505 -174.017140 -22.422757 -11.113400 -27.341847 9.775708 20.731979 64.121311 -1.060078 10.984896 -9.158178 0.005600 -0.485200 -1.333300 44.092705 3.686549 -8.641488 1.479677 -7.860736 20.318373 -0.113357 -5.986033 -15.186981 -0.211000 -2.957700 8.161000 1.350278 -2.723583 -5.014450 -1.795507 -1.749222 -0.043979 6.543015 -9.298979 16.731411 -1.047700 -3.737500 15.701700 -101.594576 11.562565 9.208290 24.350238 -33.289414 -4.657935 -0.361949 4.153626 17.201928 -7.125000 0.000000 0.000000 89.320246 -0.814561 13.558830 -27.197044 36.017729 -5.653083 -0.729718 -2.698284 7.194891 7.125000 0.000000 0.000000 
